<svg xmlns="http://www.w3.org/2000/svg" >
  <defs>
    <symbol id="brand" viewBox="0 0 697 697">
  <defs>
    <style>
      .cls-1 {
        fill: #e5e7eb;
      }

      .cls-2 {
        fill: none;
        stroke-width: 9px;
      }

      .cls-2, .cls-3 {
        stroke: #000;
        stroke-miterlimit: 10;
      }

      .cls-3 {
        stroke-width: 4px;
      }
    </style>
  </defs>
  <g id="Layer_1-2" data-name="Layer 1">
    <g>
      <g>
        <circle class="cls-1" cx="348.5" cy="348.5" r="348.5"/>
        <g>
          <g>
            <circle class="cls-2" cx="353.5" cy="344.5" r="271"/>
            <path class="cls-1" d="M497.73,88.38c-11.53,2.15-22.37,11.9-32.68,19.32-13.28,9.82-26.37,20.15-39.75,29.62-10.17,7.26-21.33,10.7-33.53,12.82-10.78,1.99-21.99,3.81-32.87,5.7-39.82,6.76-42.43,5.14-69.14,36.97-4.97,5.38-10.41,9.87-16.45,13.97-15.6,10.3-34.73,22.35-53.03,34.17-7.79,5.15-15.95,10.34-21.82,17.54-8.54,10.97-10.23,23.81-14.48,37.76-3.34,12.06-6.87,24.65-10.11,36.32-2.06,7.56-4.57,16.52-3.96,21.94.71,13.86,22.08,20.56,33.73,27.17,8.96,4.94,22.62,9.92,23.94,19.79.21,1.89-.02,3.94-.64,6.19-1.39,5.13-4.87,11.46-8.73,18.28-3.23,5.64-6.47,11.51-9.66,16.75-12.83,22.27-27.21,25.37-49.97,32.39-33.16,10.56-48.45,10.59-43.78,52.12.96,12.45,1.31,25.61,7.96,35.8,4.64,7.05,11.65,11.87,18.61,16.43,9.55,6.11,20.86,13.3,30.16,19.21,12.64,8.29,24.56,13.68,39.76,14.56,25.96,1.7,59.5,2.63,82.21,3.63,20.44,1.36,28.7-5.82,43.06-19.54,19.03-18.59,37.37-35.61,54.55-53.27,9.34-10,17.01-20.52,25.59-32.04,7.96-10.75,16.22-21.9,24.16-32.63,9.22-12.29,16.8-22.97,23.49-37.39,11.37-24.03,22.33-50.99,33.59-74.64,8.88-19.11,25.59-31.29,40.42-45.55,13.17-12.01,18.19-21.69,17.55-40.38-.28-12.8-1.57-26.1-1.85-38.93-.93-25.31,6.78-50.28,11.82-75.04,1.24-5.65,2.45-11.19,3.59-16.4,1.86-10.51,7.21-25.08,2.77-32.84-4.03-6.3-11.74-8.93-18.31-11.99-8.86-3.77-19.63-8.26-29.12-12.19-8.61-3.48-17.82-7.18-26.98-5.64l-.15.03Z"/>
          </g>
          <path class="cls-3" d="M511.44,110.59c-10.68,2.8-17.18,12.58-26.01,18.46-9.79,6.83-25.73,9.76-38.04,13.87-19.98,5.96-42.91,12.88-62.31,18.68-10.14,3.17-16.41,4.4-24.59,9.19-24.07,15.7-58.32,40.13-84.85,58.09-10.72,7.31-19.61,13.46-29.43,21.44-15.7,12.45-27.62,21.99-34.44,41.97-2.93,7.73-6.51,17.26-8.9,24.91-2.04,7.28-3.1,12,.15,17.72,2.78,4.46,7.25,7.94,11.36,11.36,11.05,9,25.28,19.94,36.36,29.33,11.22,9.21,10.35,17.69,6.82,30.37-3.17,10.25-5.42,20.09-11.29,27.8-3.23,3.95-7.68,6.71-12.04,9.63-26.31,18.1-78.78,49.95-103.22,68.78-4.78,5.37-4.66,12.43-3.75,19.68,2.67,17.71,10.88,21.64,27.01,29.37,10.87,5.41,22.91,11.34,34.14,16.92,48.12,23.27,35.39,23.01,88.95,16.64,9.61-1.44,17.96-1.34,24.92-7.1,19.79-20.26,51.51-56.5,84.39-92.04,13.8-15.07,26.03-28.57,37.57-41.2,6.97-7.04,10.38-14.04,14.67-22.79,11.99-24.13,35.51-71.55,48.86-98.16,2.43-4.67,4.78-8.6,7.9-12.77,7.52-10.04,17.56-20.82,25.07-30.66,4.34-5.62,7.67-11.63,8.83-18.71,3.56-26.07,5.96-55.13,9.02-81.75,1.22-11.61,2.17-18.12,5.81-26.89,2.43-5.99,5.55-11.86,8.26-17.76,3.47-7.32,6.5-16.66-.9-22.12-3.94-3.26-10.47-6.03-16.96-8.61-7.3-2.83-15.43-5.64-23.2-3.66l-.16.04Z"/>
        </g>
      </g>
      <g>
        <path class="cls-1" d="M319.39,240.7h30.3l33.82,125.3h-24.76l-7.72-30.97h-33.15l-7.55,30.97h-24.76l33.82-125.3ZM346.25,314.64l-11.75-51.28-11.67,51.28h23.41Z"/>
        <path class="cls-1" d="M329.24,240.68h21.65l22.87,91.98,1.84-59.51h20.56l21.58,59.51-6.84-91.98h21.82l4.49,125.3h-23.08l-24.2-65.8-3.41,65.8h-22.91l-34.37-125.3Z"/>
      </g>
    </g>
  </g>
    </symbol>
  </defs>
</svg>
