<svg xmlns="http://www.w3.org/2000/svg" >
  <defs>
    <symbol id="brand" viewBox="0 0 364 364">
  <defs>
    <clipPath id="clippath">
      <rect width="364" height="364" style="fill: none;"/>
    </clipPath>
    <clipPath id="clippath-1">
      <rect width="364" height="364" style="fill: none;"/>
    </clipPath>
    <clipPath id="clippath-2">
      <rect x="149" y="112" width="79.6" height="80.29" style="fill: none;"/>
    </clipPath>
  </defs>
  <g id="Layer_1-2" data-name="Layer 1">
    <g id="Artwork_14" data-name="Artwork 14">
      <g style="clip-path: url(#clippath);">
        <g style="clip-path: url(#clippath-1);">
          <path d="M364,182c0,100.52-81.48,182-182,182S0,282.52,0,182,81.48,0,182,0s182,81.48,182,182" style="fill: #e5e7eb;"/>
          <circle cx="184.61" cy="179.91" r="141.53" style="fill: none; stroke: #000; stroke-miterlimit: 10; stroke-width: 9px;"/>
          <path d="M259.93,46.16c-6.02,1.12-11.68,6.22-17.07,10.09-6.94,5.13-13.77,10.52-20.76,15.47-5.31,3.79-11.14,5.59-17.51,6.7-5.63,1.04-11.48,1.99-17.16,2.97-20.8,3.53-22.16,2.68-36.1,19.31-2.6,2.81-5.44,5.15-8.59,7.3-8.15,5.38-18.14,11.67-27.69,17.84-4.07,2.69-8.33,5.4-11.4,9.16-4.46,5.73-5.34,12.44-7.56,19.72-1.74,6.3-3.59,12.87-5.28,18.97-1.07,3.95-2.39,8.62-2.07,11.46.37,7.24,11.53,10.74,17.62,14.19,4.68,2.58,11.81,5.18,12.5,10.34.11.99-.01,2.06-.33,3.23-.73,2.68-2.55,5.99-4.56,9.55-1.69,2.95-3.38,6.01-5.04,8.75-6.7,11.63-14.21,13.25-26.1,16.91-17.32,5.51-25.3,5.53-22.86,27.22.5,6.5.68,13.38,4.16,18.69,2.42,3.68,6.08,6.2,9.72,8.58,4.99,3.19,10.9,6.95,15.75,10.03,6.6,4.33,12.82,7.15,20.76,7.61,13.56.89,31.07,1.37,42.93,1.89,10.68.71,14.99-3.04,22.49-10.21,9.94-9.71,19.51-18.6,28.49-27.82,4.88-5.22,8.88-10.72,13.37-16.73,4.16-5.61,8.47-11.44,12.62-17.04,4.82-6.42,8.77-12,12.27-19.52,5.94-12.55,11.66-26.63,17.54-38.98,4.63-9.98,13.36-16.34,21.11-23.79,6.88-6.27,9.5-11.33,9.17-21.09-.14-6.69-.82-13.63-.97-20.33-.48-13.22,3.54-26.26,6.17-39.19.65-2.95,1.28-5.85,1.88-8.57.97-5.49,3.76-13.1,1.45-17.15-2.11-3.29-6.13-4.66-9.56-6.26-4.63-1.97-10.25-4.31-15.21-6.37-4.49-1.82-9.31-3.75-14.09-2.95h-.08Z" style="fill: #e5e7eb;"/>
          <path d="M267.09,57.75c-5.58,1.46-8.97,6.57-13.58,9.64-5.11,3.57-13.44,5.1-19.87,7.24-10.43,3.11-22.41,6.73-32.54,9.75-5.3,1.66-8.57,2.3-12.84,4.8-12.57,8.2-30.46,20.96-44.31,30.34-5.6,3.82-10.24,7.03-15.37,11.19-8.2,6.5-14.42,11.49-17.98,21.92-1.53,4.04-3.4,9.01-4.65,13.01-1.07,3.8-1.62,6.27.08,9.25,1.45,2.33,3.79,4.14,5.93,5.93,5.77,4.7,13.2,10.41,18.99,15.31,5.86,4.81,5.41,9.24,3.56,15.86-1.66,5.36-2.83,10.49-5.9,14.52-1.69,2.06-4.01,3.5-6.29,5.03-13.74,9.45-41.14,26.09-53.9,35.92-2.5,2.81-2.44,6.49-1.96,10.28,1.39,9.25,5.68,11.3,14.11,15.34,5.68,2.82,11.96,5.92,17.83,8.83,25.13,12.15,18.48,12.02,46.45,8.69,5.02-.75,9.38-.7,13.01-3.71,10.34-10.58,26.9-29.51,44.07-48.07,7.21-7.87,13.59-14.92,19.62-21.52,3.64-3.68,5.42-7.33,7.66-11.9,6.26-12.6,18.54-37.37,25.52-51.26,1.27-2.44,2.5-4.49,4.12-6.67,3.93-5.24,9.17-10.87,13.09-16.01,2.26-2.94,4.01-6.08,4.61-9.77,1.86-13.62,3.11-28.79,4.71-42.69.64-6.06,1.14-9.46,3.04-14.04,1.27-3.13,2.9-6.2,4.31-9.27,1.81-3.82,3.39-8.7-.47-11.55-2.06-1.71-5.47-3.15-8.85-4.5-3.81-1.48-8.06-2.95-12.12-1.91l-.08.02Z" style="fill: #000000;"/>
          <path d="M267.09,57.75c-5.58,1.46-8.97,6.57-13.58,9.64-5.11,3.57-13.44,5.1-19.87,7.24-10.43,3.11-22.41,6.73-32.54,9.75-5.3,1.66-8.57,2.3-12.84,4.8-12.57,8.2-30.46,20.96-44.31,30.34-5.6,3.82-10.24,7.03-15.37,11.19-8.2,6.5-14.42,11.49-17.98,21.92-1.53,4.04-3.4,9.01-4.65,13.01-1.07,3.8-1.62,6.27.08,9.25,1.45,2.33,3.79,4.14,5.93,5.93,5.77,4.7,13.2,10.41,18.99,15.31,5.86,4.81,5.41,9.24,3.56,15.86-1.66,5.36-2.83,10.49-5.9,14.52-1.69,2.06-4.01,3.5-6.29,5.03-13.74,9.45-41.14,26.09-53.9,35.92-2.5,2.81-2.44,6.49-1.96,10.28,1.39,9.25,5.68,11.3,14.11,15.34,5.68,2.82,11.96,5.92,17.83,8.83,25.13,12.15,18.48,12.02,46.45,8.69,5.02-.75,9.38-.7,13.01-3.71,10.34-10.58,26.9-29.51,44.07-48.07,7.21-7.87,13.59-14.92,19.62-21.52,3.64-3.68,5.42-7.33,7.66-11.9,6.26-12.6,18.54-37.37,25.52-51.26,1.27-2.44,2.5-4.49,4.12-6.67,3.93-5.24,9.17-10.87,13.09-16.01,2.26-2.94,4.01-6.08,4.61-9.77,1.86-13.62,3.11-28.79,4.71-42.69.64-6.06,1.14-9.46,3.04-14.04,1.27-3.13,2.9-6.2,4.31-9.27,1.81-3.82,3.39-8.7-.47-11.55-2.06-1.71-5.47-3.15-8.85-4.5-3.81-1.48-8.06-2.95-12.12-1.91l-.08.02Z" style="fill: none; stroke: #0000; stroke-miterlimit: 10; stroke-width: 4px;"/>
        </g>
        <g style="clip-path: url(#clippath-2);">
          <path d="M174.68,138.41l6.17,26.92h-12.29l6.12-26.92ZM166.75,126.51l-17.75,65.77h13l3.96-16.26h17.4l4.05,16.26h12.99l-17.75-65.77h-15.9Z" style="fill: #ffffff;"/>
          <polygon points="214.79 126.5 218.38 174.79 207.05 143.55 196.26 143.55 195.29 174.79 183.29 126.5 171.92 126.5 189.96 192.28 201.99 192.28 203.78 157.74 216.48 192.28 228.6 192.28 228.6 192.25 226.24 126.5 214.79 126.5" style="fill: #ffffff;"/>
          <path d="M173.98,123.14c-.65,0-1.06-.33-1.22-.98l-2.26-9.18c-.16-.65.08-.98.74-.98h7.59c.65,0,1.06.32,1.22.98l2.26,9.18c.16.65-.08.98-.74.98h-7.59Z" style="fill: #ffffff;"/>
        </g>
      </g>
    </g>
  </g>
    </symbol>
  </defs>
</svg>
