<?xml version="1.0" encoding="UTF-8"?>
<svg id="Layer_2" data-name="Layer 2" xmlns="http://www.w3.org/2000/svg" xmlns:xlink="http://www.w3.org/1999/xlink" viewBox="0 0 372 372">
  <defs>
    <clipPath id="clippath">
      <rect x="71.84" y="202.6" width="39.38" height="39.72" style="fill: none;"/>
    </clipPath>
    <clipPath id="clippath-1">
      <rect x="71.84" y="202.6" width="39.38" height="39.72" style="fill: none;"/>
    </clipPath>
  </defs>
  <g id="Layer_1-2" data-name="Layer 1">
    <g>
      <circle cx="186" cy="186" r="186" style="fill: #e5e7eb;"/>
      <circle cx="187.5" cy="186.67" r="152.5" style="fill: none; stroke: #000; stroke-miterlimit: 10; stroke-width: 9px;"/>
      <path d="M268.66,42.55c-6.49,1.21-12.59,6.7-18.39,10.87-7.47,5.53-14.84,11.34-22.37,16.67-5.72,4.08-12.01,6.02-18.87,7.21-6.07,1.12-12.37,2.15-18.49,3.2-22.41,3.8-23.88,2.89-38.9,20.81-2.8,3.03-5.86,5.55-9.25,7.86-8.78,5.79-19.55,12.58-29.84,19.23-4.39,2.9-8.97,5.82-12.28,9.87-4.8,6.17-5.76,13.4-8.15,21.25-1.88,6.79-3.87,13.87-5.69,20.44-1.16,4.25-2.57,9.29-2.23,12.35.4,7.8,12.42,11.57,18.98,15.29,5.04,2.78,12.73,5.58,13.47,11.14.12,1.06-.01,2.22-.36,3.48-.78,2.89-2.74,6.45-4.91,10.29-1.82,3.17-3.64,6.48-5.44,9.43-7.22,12.53-15.31,14.28-28.12,18.22-18.66,5.94-27.26,5.96-24.63,29.33.54,7.01.74,14.41,4.48,20.14,2.61,3.97,6.55,6.68,10.47,9.24,5.37,3.44,11.74,7.49,16.97,10.81,7.11,4.67,13.82,7.7,22.37,8.2,14.61.96,33.48,1.48,46.26,2.04,11.5.76,16.15-3.28,24.23-11,10.71-10.46,21.03-20.04,30.7-29.98,5.26-5.63,9.57-11.55,14.4-18.03,4.48-6.05,9.13-12.32,13.6-18.36,5.19-6.92,9.45-12.93,13.22-21.04,6.4-13.52,12.57-28.7,18.9-42,4.99-10.76,14.4-17.61,22.75-25.63,7.41-6.76,10.23-12.21,9.88-22.72-.16-7.21-.88-14.69-1.04-21.9-.52-14.24,3.82-28.29,6.65-42.23.7-3.18,1.38-6.3,2.02-9.23,1.05-5.91,4.05-14.11,1.56-18.48-2.27-3.55-6.61-5.02-10.3-6.75-4.99-2.12-11.05-4.65-16.39-6.86-4.84-1.96-10.03-4.04-15.18-3.18h-.08Z" style="fill: #e5e7eb;"/>
      <g style="clip-path: url(#clippath);">
        <path d="M84.54,215.67l3.05,13.32h-6.08l3.03-13.32ZM80.62,209.78l-8.78,32.54h6.43l1.96-8.04h8.61l2.01,8.04h6.43l-8.78-32.54h-7.87Z"/>
        <polygon points="104.39 209.78 106.16 233.67 100.56 218.21 95.22 218.21 94.74 233.67 88.8 209.78 83.18 209.78 92.1 242.32 98.05 242.32 98.94 225.23 105.22 242.32 111.22 242.32 111.22 242.31 110.05 209.78 104.39 209.78"/>
        <g style="clip-path: url(#clippath-1);">
          <path d="M84.19,208.11c-.32,0-.52-.16-.6-.48l-1.12-4.54c-.08-.32.04-.48.36-.48h3.75c.32,0,.52.16.6.48l1.12,4.54c.08.32-.04.48-.36.48h-3.75Z"/>
        </g>
      </g>
      <path d="M52.56,288.91l67.87-36.87,15.92-48.6s-33.82-57.13-32.68-57.82c4.19-2.51,58.65-54.46,58.65-54.46l68.71-10.05,63.8-30.84-7.68,110.56-129.02,169.15-73.03-.28-32.55-40.78Z" style="fill: none; stroke: #000; stroke-miterlimit: 10; stroke-width: 4px;"/>
      <path d="M85.12,329.69l35.3-77.77,35.58,74.08c.29.57,2.11,2.63,2,2l-21.64-124.56,94.64-121.44s.71-.4,1,0l54,78c.54.73.9.07,0,0l-182-14" style="fill: none; stroke: #000; stroke-miterlimit: 10; stroke-width: 4px;"/>
      <path d="M287.16,160.82l-149.54,42.01c-.25.07-.3.4-.09.55l76.33,53.28" style="fill: none; stroke: #000; stroke-miterlimit: 10; stroke-width: 4px;"/>
    </g>
  </g>
</svg>