<?xml version="1.0" encoding="UTF-8"?>
<svg id="Layer_2" data-name="Layer 2" xmlns="http://www.w3.org/2000/svg" xmlns:xlink="http://www.w3.org/1999/xlink" viewBox="0 0 373.46 373.49">
  <defs>
    <clipPath id="clippath">
      <rect x="48.46" y="206" width="47" height="47.41" style="fill: none;"/>
    </clipPath>
    <clipPath id="clippath-1">
      <rect x="48.46" y="206" width="47" height="47.41" style="fill: none;"/>
    </clipPath>
  </defs>
  <g id="Layer_1-2" data-name="Layer 1">
    <g>
      <g>
        <g>
          <g>
            <g>
              <circle cx="186.5" cy="186.99" r="182" style="fill: none; stroke: #000; stroke-miterlimit: 10; stroke-width: 9px;"/>
              <path d="M283.36,14.99c-7.74,1.44-15.03,7.99-21.95,12.97-8.92,6.59-17.71,13.53-26.7,19.89-6.83,4.87-14.33,7.18-22.52,8.61-7.24,1.34-14.77,2.56-22.07,3.82-26.74,4.54-28.5,3.45-46.43,24.83-3.34,3.62-6.99,6.63-11.05,9.38-10.48,6.92-23.33,15.01-35.61,22.95-5.23,3.46-10.71,6.95-14.65,11.78-5.73,7.37-6.87,15.99-9.73,25.36-2.24,8.1-4.61,16.55-6.79,24.4-1.38,5.08-3.07,11.09-2.66,14.74.48,9.31,14.83,13.81,22.65,18.25,6.02,3.32,15.19,6.66,16.08,13.29.14,1.27-.01,2.65-.43,4.16-.94,3.45-3.27,7.7-5.86,12.28-2.17,3.79-4.35,7.73-6.49,11.25-8.62,14.96-18.28,17.04-33.56,21.75-22.27,7.09-32.54,7.11-29.4,35,.64,8.36.88,17.2,5.35,24.04,3.12,4.73,7.82,7.97,12.5,11.03,6.41,4.11,14.01,8.93,20.26,12.9,8.49,5.57,16.49,9.19,26.7,9.78,17.43,1.14,39.96,1.77,55.21,2.44,13.73.91,19.27-3.91,28.92-13.12,12.78-12.49,25.1-23.91,36.64-35.78,6.27-6.72,11.42-13.78,17.19-21.52,5.35-7.22,10.89-14.71,16.23-21.92,6.19-8.25,11.28-15.43,15.78-25.11,7.63-16.14,15-34.25,22.56-50.13,5.96-12.84,17.18-21.01,27.15-30.59,8.84-8.07,12.21-14.57,11.79-27.12-.19-8.6-1.05-17.53-1.24-26.14-.62-17,4.56-33.77,7.94-50.39.83-3.79,1.65-7.52,2.41-11.02,1.25-7.06,4.84-16.84,1.86-22.06-2.71-4.23-7.89-6-12.29-8.05-5.95-2.53-13.18-5.55-19.56-8.19-5.78-2.34-11.97-4.82-18.12-3.79l-.1.02Z" style="fill: #fff;"/>
            </g>
            <g id="Artwork_15" data-name="Artwork 15">
              <g style="clip-path: url(#clippath);">
                <path d="M63.63,221.59l3.64,15.89h-7.26l3.62-15.89ZM58.95,214.57l-10.48,38.84h7.67l2.34-9.6h10.28l2.39,9.6h7.67l-10.48-38.84h-9.39Z"/>
                <polygon points="87.31 214.56 89.43 243.08 82.74 224.63 76.37 224.63 75.8 243.08 68.71 214.56 62 214.56 72.65 253.4 79.75 253.4 80.81 233.01 88.31 253.4 95.46 253.4 95.46 253.39 94.07 214.56 87.31 214.56"/>
                <g style="clip-path: url(#clippath-1);">
                  <path d="M63.21,212.58c-.38,0-.62-.19-.72-.58l-1.34-5.42c-.09-.38.05-.58.43-.58h4.48c.38,0,.62.19.72.58l1.34,5.42c.09.38-.05.58-.43.58h-4.48Z"/>
                </g>
              </g>
            </g>
          </g>
          <path d="M25.46,309l81-44,19-58s-40.36-68.18-39-69c5-3,70-65,70-65l82-12,76.14-36.81-9.16,131.94-153.98,201.87-87.15-.33-38.85-48.67Z" style="fill: none; stroke: #000; stroke-miterlimit: 10;"/>
          <polyline points="64.31 357.67 106.44 264.86 149.96 354.5 125.46 207 238.46 61 305.44 156.13 86.46 138" style="fill: none; stroke: #000; stroke-miterlimit: 10;"/>
        </g>
        <polyline points="305.44 156.13 125.46 207 217.96 270.5" style="fill: none; stroke: #000; stroke-miterlimit: 10;"/>
      </g>
    </g>
  </g>
</svg>